<?xml version="1.0" encoding="UTF-8" standalone="no"?>
<!DOCTYPE svg PUBLIC "-//W3C//DTD SVG 1.1//EN"
 "http://www.w3.org/Graphics/SVG/1.1/DTD/svg11.dtd">
<!-- Generated by graphviz version 2.47.3 (20210619.1520)
 -->
<!-- Title: dependencies Pages: 1 -->
<svg width="452pt" height="247pt"
 viewBox="0.00 0.00 452.00 246.80" xmlns="http://www.w3.org/2000/svg" xmlns:xlink="http://www.w3.org/1999/xlink">
<g id="graph0" class="graph" transform="scale(1 1) rotate(0) translate(4 242.8)">
<title>dependencies</title>
<polygon fill="white" stroke="transparent" points="-4,4 -4,-242.8 448,-242.8 448,4 -4,4"/>
<text text-anchor="middle" x="222" y="-8.2" font-family="sans-serif" font-size="14.00">dependencies</text>
<g id="clust1" class="cluster">
<title>cluster_AppModule</title>
<polygon fill="none" stroke="black" stroke-dasharray="1,5" points="8,-32.8 8,-230.8 436,-230.8 436,-32.8 8,-32.8"/>
</g>
<g id="clust2" class="cluster">
<title>cluster_AppModule_declarations</title>
<polygon fill="none" stroke="black" points="168,-40.8 168,-92.8 428,-92.8 428,-40.8 168,-40.8"/>
</g>
<g id="clust5" class="cluster">
<title>cluster_AppModule_imports</title>
<polygon fill="none" stroke="black" points="16,-40.8 16,-92.8 160,-92.8 160,-40.8 16,-40.8"/>
</g>
<g id="clust7" class="cluster">
<title>cluster_AppModule_bootstrap</title>
<polygon fill="none" stroke="black" points="174,-170.8 174,-222.8 298,-222.8 298,-170.8 174,-170.8"/>
</g>
<!-- AppComponent -->
<g id="node1" class="node">
<title>AppComponent</title>
<polygon fill="#ffffb3" stroke="black" points="419.94,-84.8 314.06,-84.8 314.06,-48.8 419.94,-48.8 419.94,-84.8"/>
<text text-anchor="middle" x="367" y="-62.6" font-family="Times,serif" font-size="14.00">AppComponent</text>
</g>
<!-- AppModule -->
<g id="node3" class="node">
<title>AppModule</title>
<polygon fill="#8dd3c7" stroke="black" points="277.66,-149.8 274.66,-153.8 253.66,-153.8 250.66,-149.8 194.34,-149.8 194.34,-113.8 277.66,-113.8 277.66,-149.8"/>
<text text-anchor="middle" x="236" y="-127.6" font-family="Times,serif" font-size="14.00">AppModule</text>
</g>
<!-- AppComponent&#45;&gt;AppModule -->
<g id="edge1" class="edge">
<title>AppComponent&#45;&gt;AppModule</title>
<path fill="none" stroke="black" d="M367,-84.91C367,-104.14 367,-131.8 367,-131.8 367,-131.8 287.81,-131.8 287.81,-131.8"/>
<polygon fill="black" stroke="black" points="287.81,-128.3 277.81,-131.8 287.81,-135.3 287.81,-128.3"/>
</g>
<!-- OlMapComponent -->
<g id="node2" class="node">
<title>OlMapComponent</title>
<polygon fill="#ffffb3" stroke="black" points="296.49,-84.8 175.51,-84.8 175.51,-48.8 296.49,-48.8 296.49,-84.8"/>
<text text-anchor="middle" x="236" y="-62.6" font-family="Times,serif" font-size="14.00">OlMapComponent</text>
</g>
<!-- OlMapComponent&#45;&gt;AppModule -->
<g id="edge2" class="edge">
<title>OlMapComponent&#45;&gt;AppModule</title>
<path fill="none" stroke="black" d="M236,-84.91C236,-84.91 236,-103.79 236,-103.79"/>
<polygon fill="black" stroke="black" points="232.5,-103.79 236,-113.79 239.5,-103.79 232.5,-103.79"/>
</g>
<!-- AppComponent  -->
<g id="node5" class="node">
<title>AppComponent </title>
<polygon fill="#80b1d3" stroke="black" points="290.44,-214.8 181.56,-214.8 181.56,-178.8 290.44,-178.8 290.44,-214.8"/>
<text text-anchor="middle" x="236" y="-192.6" font-family="Times,serif" font-size="14.00">AppComponent </text>
</g>
<!-- AppModule&#45;&gt;AppComponent  -->
<g id="edge4" class="edge">
<title>AppModule&#45;&gt;AppComponent </title>
<path fill="none" stroke="black" stroke-dasharray="1,5" d="M236,-149.91C236,-149.91 236,-168.79 236,-168.79"/>
<polygon fill="black" stroke="black" points="232.5,-168.79 236,-178.79 239.5,-168.79 232.5,-168.79"/>
</g>
<!-- AppRoutingModule -->
<g id="node4" class="node">
<title>AppRoutingModule</title>
<polygon fill="#8dd3c7" stroke="black" points="152.27,-84.8 149.27,-88.8 128.27,-88.8 125.27,-84.8 23.73,-84.8 23.73,-48.8 152.27,-48.8 152.27,-84.8"/>
<text text-anchor="middle" x="88" y="-62.6" font-family="Times,serif" font-size="14.00">AppRoutingModule</text>
</g>
<!-- AppRoutingModule&#45;&gt;AppModule -->
<g id="edge3" class="edge">
<title>AppRoutingModule&#45;&gt;AppModule</title>
<path fill="none" stroke="black" d="M88,-84.91C88,-104.14 88,-131.8 88,-131.8 88,-131.8 183.99,-131.8 183.99,-131.8"/>
<polygon fill="black" stroke="black" points="183.99,-135.3 193.99,-131.8 183.98,-128.3 183.99,-135.3"/>
</g>
</g>
</svg>
